<?xml version="1.0" encoding="UTF-8" standalone="no"?>
<svg
   xmlns:dc="http://purl.org/dc/elements/1.1/"
   xmlns:cc="http://creativecommons.org/ns#"
   xmlns:rdf="http://www.w3.org/1999/02/22-rdf-syntax-ns#"
   xmlns:svg="http://www.w3.org/2000/svg"
   xmlns="http://www.w3.org/2000/svg"
   xmlns:sodipodi="http://sodipodi.sourceforge.net/DTD/sodipodi-0.dtd"
   xmlns:inkscape="http://www.inkscape.org/namespaces/inkscape"
   id="Layer_1"
   data-name="Layer 1"
   viewBox="0 0 2186.4375 1047.08"
   version="1.1"
   sodipodi:docname="epic_megagrant.svg"
   width="2186.4375"
   height="1047.08"
   inkscape:version="0.92.3 (2405546, 2018-03-11)">
  <metadata
     id="metadata27">
    <rdf:RDF>
      <cc:Work
         rdf:about="">
        <dc:format>image/svg+xml</dc:format>
        <dc:type
           rdf:resource="http://purl.org/dc/dcmitype/StillImage" />
        <dc:title>EpicMegaGrants_Badge_Dark</dc:title>
      </cc:Work>
    </rdf:RDF>
  </metadata>
  <sodipodi:namedview
     pagecolor="#ffffff"
     bordercolor="#666666"
     borderopacity="1"
     objecttolerance="10"
     gridtolerance="10"
     guidetolerance="10"
     inkscape:pageopacity="0"
     inkscape:pageshadow="2"
     inkscape:window-width="2560"
     inkscape:window-height="1377"
     id="namedview25"
     showgrid="false"
     fit-margin-top="0"
     fit-margin-left="0"
     fit-margin-right="0"
     fit-margin-bottom="0"
     inkscape:zoom="0.22539086"
     inkscape:cx="1679.4374"
     inkscape:cy="523.54509"
     inkscape:window-x="-8"
     inkscape:window-y="-8"
     inkscape:window-maximized="1"
     inkscape:current-layer="Layer_1" />
  <defs
     id="defs4">
    <style
       id="style2">.cls-1{fill:#555555;}</style>
    <clipPath
       id="clipPath831"
       clipPathUnits="userSpaceOnUse">
      <path
         inkscape:connector-curvature="0"
         id="path829"
         d="M 67.948,536.089 C 51.238,516.93 54.407,501.11 54.407,501.11 v 0 c 0,0 4.609,10.887 15.703,22.352 v 0 c 5.252,5.429 9.181,7.246 11.862,7.254 v 0 c 2.98,0.009 4.417,-2.221 4.417,-4.208 v 0 -38.893 c 0,-3.838 -2.473,-4.677 -4.752,-4.634 v 0 c -1.946,0.036 -3.747,0.712 -3.747,0.712 v 0 c 11.38,-16.543 38.608,-18.866 38.608,-18.866 v 0 l 11.957,12.772 0.28,-0.241 10.956,-9.336 c 20.024,11.898 29.679,33.959 29.679,33.959 v 0 c -8.935,-9.46 -14.63,-11.665 -18.012,-11.648 v 0 c -2.998,0.016 -4.176,1.778 -4.176,1.778 v 0 c -0.162,0.82 -0.44,12.653 -0.541,24.493 v 0 c -0.101,12.267 -0.012,24.543 0.604,24.579 v 0 c 3.458,6.49 14.489,19.576 14.489,19.576 v 0 c -20.603,-4.06 -31.839,-17.56 -31.839,-17.56 v 0 c -3.314,2.612 -10.083,2.179 -10.083,2.179 v 0 c 3.168,-1.745 6.337,-6.825 6.337,-11.033 v 0 -41.364 c 0,0 -6.913,-6.094 -12.245,-6.094 v 0 c -3.151,0 -5.094,1.726 -6.156,3.135 v 0 c -0.734,0.978 -1.048,1.8 -1.048,1.8 v 0 51.088 c -0.654,-0.473 -1.583,-0.868 -2.538,-0.862 v 0 c -1.132,0.005 -2.305,0.573 -3.1,2.242 v 0 c -0.601,1.258 -0.987,3.14 -0.987,5.877 v 0 c 0,9.432 10.66,15.675 10.66,15.675 v 0 C 97.193,562.212 84.66,555.246 67.948,536.089" />
    </clipPath>
    <clipPath
       id="clipPath841"
       clipPathUnits="userSpaceOnUse">
      <path
         inkscape:connector-curvature="0"
         id="path839"
         d="m 31.751,515.191 c 0,-46.306 37.222,-83.844 83.139,-83.844 v 0 c 45.916,0 83.141,37.538 83.141,83.844 v 0 c 0,46.306 -37.225,83.845 -83.141,83.845 v 0 c -45.917,0 -83.139,-37.539 -83.139,-83.845 m 26.938,-56.68 C 43.677,473.652 35.41,493.782 35.41,515.191 v 0 c 0,21.41 8.267,41.538 23.279,56.677 v 0 c 15.012,15.14 34.971,23.477 56.201,23.477 v 0 c 21.229,0 41.189,-8.337 56.201,-23.477 v 0 c 15.012,-15.139 23.279,-35.267 23.279,-56.677 v 0 c 0,-21.41 -8.267,-41.54 -23.279,-56.68 v 0 C 156.079,443.373 136.119,435.038 114.89,435.038 v 0 c -21.23,0 -41.189,8.335 -56.201,23.473" />
    </clipPath>
  </defs>
  <title
     id="title6">EpicMegaGrants_Badge_Dark</title>
  <g
     id="g871"
     transform="translate(875.24109)">
    <path
       style="fill:#555555"
       inkscape:connector-curvature="0"
       id="path8"
       d="m 804.19629,1047.08 -507,-260.83 V 260.83 l 507,-260.83 507.00001,260.83 v 525.42 z m -467.65,-284.84 467.65,240.58 467.65001,-240.58 V 284.84 L 804.19629,44.26 l -467.65,240.58 z"
       class="cls-1" />
    <path
       style="fill:#555555"
       inkscape:connector-curvature="0"
       id="path10"
       d="m 809.51629,668.96 h -10.32 v 14.49 h 10.37 c 3.8,0 6.46,-2.55 6.46,-7.22 0,-4.67 -2.71,-7.27 -6.51,-7.27 z"
       class="cls-1" />
    <polygon
       transform="translate(297.19629)"
       style="fill:#555555"
       id="polygon12"
       points="399,588.22 391.88,566.88 384.58,588.22 "
       class="cls-1" />
    <path
       style="fill:#555555"
       inkscape:connector-curvature="0"
       id="path14"
       d="m 866.03629,560.7 h -12.64 v 18.07 h 12.64 c 5.81,0 9.18,-2.43 9.18,-9.08 0,-6.65 -3.37,-8.99 -9.18,-8.99 z"
       class="cls-1" />
    <path
       style="fill:#555555"
       inkscape:connector-curvature="0"
       id="path16"
       d="m 792.92629,430.7 c 0,-12.18 -7.46,-17.46 -15.09,-17.46 h -26.37 v 35.1 h 26.37 c 7.63,0 15.09,-5.28 15.09,-17.64 z"
       class="cls-1" />
    <path
       style="fill:#555555"
       inkscape:connector-curvature="0"
       id="path18"
       d="m 625.07629,676.23 c 0,-4.88 -2.55,-7.27 -7,-7.27 h -10.37 v 14.58 h 10.37 c 4.45,0 7,-2.48 7,-7.31 z"
       class="cls-1" />
    <polygon
       transform="translate(297.19629)"
       style="fill:#555555"
       id="polygon20"
       points="644.03,588.22 636.91,566.88 629.61,588.22 "
       class="cls-1" />
    <path
       style="fill:#555555"
       inkscape:connector-curvature="0"
       id="path22"
       d="m 804.19629,71.914978 -438.66,225.180002 v 454.6 l 369.23,190 v -20.38 h 8.56 v 24.74 l 24,12.36 v -62.74 h 8.56 v 67.14 l 24,12.35 v -103.91 h 8.56 v 103.91 l 24,-12.35 v -67.14 h 8.56 v 62.71 l 24,-12.35 v -24.72 h 8.56 v 20.34 l 369.23001,-190 v -454.56 z m 169.86,188.370002 4.36,-8.88 4.4,8.86 9.79,1.4 -7.07,6.92 1.66,9.8 -8.77,-4.59 -8.71,4.59 1.65,-9.75 -7.1,-6.89 z m 24,173.08 v 1.82 h -25.86 v -1.8 c 0,-15.1 -11.27,-20.91 -23.09,-20.91 -15.28,0 -22.55,7.82 -22.55,20.36 v 44.73 c 0,12.55 7.27,20.37 22.55,20.37 11.82,0 23.09,-5.46 23.09,-20.91 v -1.84 h 25.82 v 1.82 c 0,31.46 -22.18,44.55 -47.27,44.55 -32.37,0 -50,-16.91 -50,-45.82 v -41.1 c 0,-28.91 17.64,-45.82 50,-45.82 25.1,0 47.28,13.09 47.28,44.57 z m -90,-200.8 6.38,-13 6.43,13 14.33,2.03 -10.35,10.12 2.48,14.26 -12.82,-6.71 -12.8,6.76 2.42,-14.27 -10.39,-10.08 z m -220.47,0 6.43,-13 6.38,13 14.32,2.11 -10.42,10.08 2.42,14.27 -12.8,-6.76 -12.82,6.71 2.48,-14.26 -10.38,-10.12 z m 2.81,211.74 v 21.45 h -48.76 v 30.55 h 57.46 v 22.55 h -83.28 v -127.32 h 82.92 v 22.55 h -57.1 v 30.19 z m -64.79,-184 4.4,-8.86 4.36,8.88 9.79,1.44 -7.1,6.89 1.65,9.75 -8.75,-4.62 -8.76,4.6 1.69,-9.75 -7.07,-6.92 z m -120.7,355.17 h -12.83 v -42 l -12.88,21.59 h -8.24 l -12.96,-21.54 v 42 h -12.8 v -65.59 h 12.8 l 17.2,28.93 17.23,-28.93 h 12.45 z m 67.7,0 h -42.89 v -65.54 h 42.7 v 11.61 h -29.4 v 15.54 h 25.09 v 11 h -25.09 v 15.73 h 29.59 z m 57.9,88.14 h -4.67 l -8.41,-15 h -9.72 v 15 h -4.72 v -38 h 15.9 c 7.11,0 11,4.34 11,11.45 0,6 -2.82,9.39 -7.27,10.91 l 7.87,14.06 z m -13.52,-98.91 a 15.12,15.12 0 0 0 12.55,-6.46 v -7.11 h -11.62 v -11 h 24.91 v 35.39 h -7.12 l -3.65,-5.43 c -4,4.5 -9.73,6.84 -16.29,6.84 -15.07,0 -24,-8.81 -24,-23.32 v -21.49 c 0,-14.89 9.65,-23.59 26.12,-23.59 14.14,0 24.91,7.77 24.91,22.75 h -13.26 c 0,-6.65 -5.06,-10.58 -12.36,-10.58 -8.15,0 -12.08,4.21 -12.08,10.86 v 21.91 c 0,7.11 4.21,11.23 11.89,11.23 z m 63.51,98.91 h -23.72 v -38 h 23.66 v 4.18 h -18.94 v 12.59 h 16.39 v 4.18 h -16.39 v 12.86 h 19 z m 19.7,-103.49 h -22.35 l -5.43,15.35 h -12.22 v -4.4 l 22.66,-61.14 h 13 l 22.75,61.14 v 4.4 h -13.14 z m 34,78.14 h -4.73 v -0.54 c 0,-5.91 -4.77,-8.57 -9.17,-8.57 -6.41,0 -9.77,3.36 -9.77,9 v 12.91 c 0,5.65 3.36,9 9.77,9 4.4,0 9.17,-2.65 9.17,-8.57 v -0.54 h 4.73 v 0.54 c 0,8.85 -6.52,12.92 -13.85,12.92 -9.17,0 -14.54,-5 -14.54,-13.68 v -12.25 c 0,-8.63 5.37,-13.68 14.54,-13.68 7.33,0 13.85,4.07 13.85,12.92 z m 17.23,-159.44 h -25.78 v -127.29 h 56.91 c 22.91,0 36.55,15.64 36.55,40.19 0,24.37 -13.64,40 -36.55,40 h -31.09 z m 14.41,184.79 h -4.64 v -38 h 4.72 z m -0.64,-110.05 v -21.44 c 0,-14.89 9.65,-23.59 26.13,-23.59 14.14,0 24.9,7.77 24.9,22.75 h -13.29 c 0,-6.65 -5.06,-10.58 -12.36,-10.58 -8.15,0 -12.08,4.21 -12.08,10.86 v 21.91 c 0,7.11 4.21,11.23 11.89,11.23 a 15.12,15.12 0 0 0 12.55,-6.46 v -7.11 h -11.61 v -11 h 24.87 v 35.39 h -7.11 l -3.65,-5.43 c -4,4.5 -9.74,6.84 -16.3,6.84 -15.04,-0.05 -23.94,-8.86 -23.94,-23.37 z m 45.14,94.91 h -11.14 v 15.14 h -4.72 v -38 h 15.91 c 6.56,0 10.47,4.45 10.47,11.45 0,7 -3.96,11.41 -10.52,11.41 z m -1.82,-428.76 c -2,0.92 -2.85,1.28 -4.31,1.25 v 0 c -1.46,0 -2.3,-0.33 -4.31,-1.25 l -38.7,-16.23 c -0.81,-0.32 -1.29,-0.58 -2,-0.93 0,0 -1.33,-1 -1.45,-1.13 a 6.66,6.66 0 0 1 -1.47,-4.28 q -0.09,-0.93 -0.09,-2 v -77 c 0,-6.38 2.35,-8.73 8.73,-8.73 h 78.66 c 6.38,0 8.73,2.35 8.73,8.73 v 77 q 0,1.08 -0.09,2 a 6.72,6.72 0 0 1 -1.52,4.24 c -0.12,0.15 -1.45,1.13 -1.45,1.13 -0.71,0.35 -1.19,0.61 -2,0.93 z m 62,131.82 v 127.29 h -25.77 v -127.29 z m -18.88,312.08 h -4.72 v -38 h 4.72 z m 11.88,-112.76 h -10.12 v 24.62 h -13.29 v -65.54 h 28.37 c 13.39,0 20.32,7.68 20.32,20.41 0,9.27 -4.31,15.73 -10.77,18.92 l 12.08,21.81 v 4.4 h -12.91 z m 40.39,112.76 h -23.71 v -38 h 23.67 v 4.18 h -18.96 v 12.59 h 16.4 v 4.18 h -16.4 v 12.86 h 19 z m 54.39,0 h -4.34 l -18.89,-29.23 v 29.2 h -4.72 v -38 h 4.34 l 18.89,29.25 v -29.21 h 4.72 z m 5.31,-88.14 h -13.11 l -5.25,-15.35 h -22.37 l -5.43,15.35 h -12.25 v -4.4 l 22.66,-61.14 h 13 l 22.76,61.14 z m 47.23001,54.33 h -11.51001 v 33.81 h -4.72 v -33.81 h -11.56 v -4.18 h 27.79001 z m 21.59,-54.33 h -12.18 l -25.05001,-40.82 v 40.82 h -13.3 v -65.54 h 12.18 l 25.09001,40.82 v -40.82 h 13.3 z m 68.34,-53.93 h -18.35 v 53.93 h -13.29 v -53.93 h -18.45 v -11.61 h 50.09 z m 39.7,55.34 c -14,0 -25.65,-7.49 -25.65,-22.66 h 13.29 c 0,8.52 7.68,10.48 13.11,10.48 7,0 10.77,-3 10.77,-7.11 0,-4.68 -5.34,-6 -15.26,-9.74 l -2.72,-1 c -8.33,-3.18 -17.51,-7.4 -17.51,-18.54 0,-11.89 9.18,-19.75 24.25,-19.75 14.14,0 24.72,6.27 24.72,22.09 h -13.27 c 0,-7.49 -5.62,-9.92 -11.61,-9.92 -6.56,0 -10.68,2.62 -10.68,6.83 0,4.87 4.78,6 11,8.24 l 2.62,0.94 c 11.71,4.21 22.47,8.24 22.47,20.22 0.03,11.42 -8.58,19.92 -25.53,19.92 z"
       class="cls-1" />
  </g>
  <g
     id="g1233"
     transform="matrix(16.217992,0,0,16.217992,-135.53271,-732.41117)">
    <g
       transform="matrix(0.35277777,0,0,-0.35277777,-2.8441117,259.18995)"
       id="g825">
      <g
         clip-path="url(#clipPath831)"
         id="g827">
        <path
           inkscape:connector-curvature="0"
           id="path833"
           style="fill:#555555;fill-opacity:1;fill-rule:nonzero;stroke:none"
           d="M 52.991,567.018 H 170.546 V 463.652 H 52.991 Z" />
      </g>
    </g>
    <g
       transform="matrix(0.35277777,0,0,-0.35277777,-2.8441117,259.18995)"
       id="g835">
      <g
         clip-path="url(#clipPath841)"
         id="g837">
        <path
           inkscape:connector-curvature="0"
           id="path843"
           style="fill:#555555;fill-opacity:1;fill-rule:nonzero;stroke:none"
           d="M 30.575,600.211 H 199.206 V 430.169 H 30.575 Z" />
      </g>
    </g>
  </g>
</svg>
