<?xml version="1.0" encoding="UTF-8" standalone="no"?>
<svg
   xmlns:dc="http://purl.org/dc/elements/1.1/"
   xmlns:cc="http://creativecommons.org/ns#"
   xmlns:rdf="http://www.w3.org/1999/02/22-rdf-syntax-ns#"
   xmlns:svg="http://www.w3.org/2000/svg"
   xmlns="http://www.w3.org/2000/svg"
   height="1047.08"
   width="2186.4375"
   version="1.1"
   viewBox="0 0 2186.4375 1047.08"
   data-name="Layer 1"
   id="Layer_1">
  <metadata
     id="metadata27">
    <rdf:RDF>
      <cc:Work
         rdf:about="">
        <dc:format>image/svg+xml</dc:format>
        <dc:type
           rdf:resource="http://purl.org/dc/dcmitype/StillImage" />
        <dc:title></dc:title>
      </cc:Work>
    </rdf:RDF>
  </metadata>
  <defs
     id="defs4">
    <style
       id="style2">.cls-1{fill:#555555;}</style>
    <clipPath
       clipPathUnits="userSpaceOnUse"
       id="clipPath831">
      <path
         d="M 67.948,536.089 C 51.238,516.93 54.407,501.11 54.407,501.11 v 0 c 0,0 4.609,10.887 15.703,22.352 v 0 c 5.252,5.429 9.181,7.246 11.862,7.254 v 0 c 2.98,0.009 4.417,-2.221 4.417,-4.208 v 0 -38.893 c 0,-3.838 -2.473,-4.677 -4.752,-4.634 v 0 c -1.946,0.036 -3.747,0.712 -3.747,0.712 v 0 c 11.38,-16.543 38.608,-18.866 38.608,-18.866 v 0 l 11.957,12.772 0.28,-0.241 10.956,-9.336 c 20.024,11.898 29.679,33.959 29.679,33.959 v 0 c -8.935,-9.46 -14.63,-11.665 -18.012,-11.648 v 0 c -2.998,0.016 -4.176,1.778 -4.176,1.778 v 0 c -0.162,0.82 -0.44,12.653 -0.541,24.493 v 0 c -0.101,12.267 -0.012,24.543 0.604,24.579 v 0 c 3.458,6.49 14.489,19.576 14.489,19.576 v 0 c -20.603,-4.06 -31.839,-17.56 -31.839,-17.56 v 0 c -3.314,2.612 -10.083,2.179 -10.083,2.179 v 0 c 3.168,-1.745 6.337,-6.825 6.337,-11.033 v 0 -41.364 c 0,0 -6.913,-6.094 -12.245,-6.094 v 0 c -3.151,0 -5.094,1.726 -6.156,3.135 v 0 c -0.734,0.978 -1.048,1.8 -1.048,1.8 v 0 51.088 c -0.654,-0.473 -1.583,-0.868 -2.538,-0.862 v 0 c -1.132,0.005 -2.305,0.573 -3.1,2.242 v 0 c -0.601,1.258 -0.987,3.14 -0.987,5.877 v 0 c 0,9.432 10.66,15.675 10.66,15.675 v 0 C 97.193,562.212 84.66,555.246 67.948,536.089"
         id="path829" />
    </clipPath>
    <clipPath
       clipPathUnits="userSpaceOnUse"
       id="clipPath841">
      <path
         d="m 31.751,515.191 c 0,-46.306 37.222,-83.844 83.139,-83.844 v 0 c 45.916,0 83.141,37.538 83.141,83.844 v 0 c 0,46.306 -37.225,83.845 -83.141,83.845 v 0 c -45.917,0 -83.139,-37.539 -83.139,-83.845 m 26.938,-56.68 C 43.677,473.652 35.41,493.782 35.41,515.191 v 0 c 0,21.41 8.267,41.538 23.279,56.677 v 0 c 15.012,15.14 34.971,23.477 56.201,23.477 v 0 c 21.229,0 41.189,-8.337 56.201,-23.477 v 0 c 15.012,-15.139 23.279,-35.267 23.279,-56.677 v 0 c 0,-21.41 -8.267,-41.54 -23.279,-56.68 v 0 C 156.079,443.373 136.119,435.038 114.89,435.038 v 0 c -21.23,0 -41.189,8.335 -56.201,23.473"
         id="path839" />
    </clipPath>
  </defs>
  <g
     transform="matrix(16.217992,0,0,16.217992,-135.53271,-732.41117)"
     id="g1233">
    <g
       id="g825"
       transform="matrix(0.35277777,0,0,-0.35277777,-2.8441117,259.18995)">
      <g
         id="g827"
         clip-path="url(#clipPath831)">
        <path
           d="M 52.991,567.018 H 170.546 V 463.652 H 52.991 Z"
           style="fill:#555555;fill-opacity:1;fill-rule:nonzero;stroke:none"
           id="path833" />
      </g>
    </g>
    <g
       id="g835"
       transform="matrix(0.35277777,0,0,-0.35277777,-2.8441117,259.18995)">
      <g
         id="g837"
         clip-path="url(#clipPath841)">
        <path
           d="M 30.575,600.211 H 199.206 V 430.169 H 30.575 Z"
           style="fill:#555555;fill-opacity:1;fill-rule:nonzero;stroke:none"
           id="path843" />
      </g>
    </g>
  </g>
  <g
     id="g24"
     transform="matrix(4.1369509,0,0,4.1369509,1158.0072,-20.7368)">
    <path
       id="path2"
       d="m 123.22,88.78 h -6.86 v 9.13 h 6.86 c 1.99,0 3.93,-1.37 3.93,-4.59 0,-3.16 -1.94,-4.54 -3.93,-4.54 z"
       style="fill:#555555;fill-opacity:1;fill-rule:nonzero;stroke:none" />
    <path
       id="path4"
       d="m 33.96,189.47 c 0,1.24 0.66,2.39 1.74,3.02 l 89.24,50.68 c 1.45,0.82 3.23,0.83 4.69,0.01 l 89.46,-50.4 c 1.08,-0.62 1.74,-1.77 1.75,-3.01 l 0.01,-9.09 H 33.98 Z m 130.97,1.26 h 11.11 v 2.58 h -4.07 v 11.97 h -2.95 V 193.3 h -4.09 z m -12.37,0 h 2.7 l 5.57,9.06 v -9.06 h 2.95 v 14.54 h -2.7 l -5.57,-9.06 v 9.06 h -2.95 z m -11.3,0 h 9.47 v 2.58 h -6.52 v 3.45 h 5.57 v 2.45 h -5.57 v 3.49 h 6.56 v 2.58 h -9.51 z m -5.57,0 h 2.95 v 14.54 h -2.95 z m -12.35,0 h 6.5 c 2.62,0 4.18,1.79 4.18,4.59 0,2.78 -1.56,4.57 -4.18,4.57 h -3.55 v 5.38 h -2.95 z m -5.57,0 h 2.95 v 14.54 h -2.95 z m -13.1,4.92 c 0,-3.3 2.01,-5.24 5.71,-5.24 2.87,0 5.4,1.5 5.4,5.09 v 0.21 h -2.95 v -0.21 c 0,-1.72 -1.29,-2.39 -2.64,-2.39 -1.75,0 -2.58,0.89 -2.58,2.33 v 5.11 c 0,1.43 0.83,2.33 2.58,2.33 1.35,0 2.64,-0.62 2.64,-2.39 v -0.21 h 2.95 v 0.21 c 0,3.59 -2.54,5.09 -5.4,5.09 -3.7,0 -5.71,-1.93 -5.71,-5.24 z m -10.89,-4.92 h 9.47 v 2.58 h -6.52 v 3.45 h 5.57 v 2.45 h -5.57 v 3.49 h 6.56 v 2.58 h -9.51 z m -13,0 h 6.29 c 2.97,0 4.51,1.7 4.51,4.53 0,2.06 -0.96,3.49 -2.39,4.2 l 2.68,4.84 v 0.98 H 89 l -3.03,-5.46 h -2.24 v 5.46 h -2.95 z"
       style="fill:#555555;fill-opacity:1;fill-rule:nonzero;stroke:none" />
    <path
       id="path6"
       d="m 131.02,195.3 c 0,-1.39 -0.85,-1.99 -1.72,-1.99 h -3.01 v 4.01 h 3.01 c 0.87,-0.01 1.72,-0.61 1.72,-2.02 z"
       style="fill:#555555;fill-opacity:1;fill-rule:nonzero;stroke:none" />
    <path
       id="path8-0"
       d="m 88.57,195.3 c 0,-1.45 -0.75,-1.99 -2.04,-1.99 h -2.8 v 4.01 h 2.8 c 1.3,-0.01 2.04,-0.55 2.04,-2.02 z"
       style="fill:#555555;fill-opacity:1;fill-rule:nonzero;stroke:none" />
    <path
       id="path10-9"
       d="m 221,75.07 c 0,-1.24 -0.66,-2.39 -1.74,-3.02 L 129.39,19.98 c -1.08,-0.62 -2.4,-0.63 -3.48,-0.01 l -90.04,51.8 c -1.08,0.62 -1.74,1.77 -1.75,3.01 l -0.07,53.11 H 220.92 Z M 116,43.82 c 0,-1.54 0.56,-2.11 2.09,-2.11 h 18.82 c 1.53,0 2.09,0.57 2.09,2.11 v 18.56 c 0,0.17 -0.01,0.34 -0.02,0.49 -0.03,0.34 -0.04,0.66 -0.35,1.03 -0.03,0.04 -0.35,0.27 -0.35,0.27 -0.17,0.08 -0.29,0.15 -0.48,0.22 l -9.27,3.91 c -0.48,0.22 -0.68,0.31 -1.03,0.3 v 0 c 0,0 0,0 0,0 0,0 0,0 0,0 v 0 c -0.35,0.01 -0.55,-0.08 -1.03,-0.3 l -9.27,-3.91 c -0.19,-0.08 -0.31,-0.14 -0.48,-0.22 0,0 -0.32,-0.24 -0.35,-0.27 -0.31,-0.37 -0.32,-0.7 -0.35,-1.03 C 116,62.72 116,62.56 116,62.38 Z m -10.43,72.22 H 83.9 V 82.92 h 21.58 v 5.87 H 90.62 v 7.86 h 12.68 v 5.58 H 90.62 v 7.95 h 14.95 z m -2.32,-59.26 0.74,4.26 -3.83,-2 -3.82,2.02 0.72,-4.26 -3.1,-3.01 4.27,-0.63 1.9,-3.88 1.92,3.87 4.28,0.61 z m 21.2,47.01 h -8.09 v 12.26 h -6.72 V 82.92 h 14.81 c 5.96,0 9.51,4.07 9.51,10.46 0.01,6.34 -3.54,10.41 -9.51,10.41 z m 20.07,12.25 H 137.8 V 82.92 h 6.72 z m 8.38,-62.89 1.9,-3.88 1.92,3.87 4.28,0.61 -3.09,3.02 0.74,4.26 -3.83,-2 -3.82,2.02 0.72,-4.26 -3.1,-3.01 z m 21.95,41.12 h -6.72 V 93.8 c 0,-3.93 -2.93,-5.44 -6.01,-5.44 -3.98,0 -5.87,2.04 -5.87,5.3 v 11.64 c 0,3.27 1.89,5.3 5.87,5.3 3.08,0 6.01,-1.42 6.01,-5.44 v -0.47 h 6.72 v 0.47 c 0,8.19 -5.77,11.6 -12.3,11.6 -8.42,0 -13.01,-4.4 -13.01,-11.93 v -10.7 c 0,-7.52 4.59,-11.93 13.01,-11.93 6.53,0 12.3,3.41 12.3,11.59 z"
       style="fill:#555555;fill-opacity:1;fill-rule:nonzero;stroke:none" />
    <path
       id="path12"
       d="m 159.56,160.17 c 0,1.24 0.92,1.95 2.59,1.95 1.77,0 3.05,-0.6 4.15,-1.81 v -2.06 h -3.83 c -2.42,0 -2.91,1.14 -2.91,1.92 z"
       style="fill:#555555;fill-opacity:1;fill-rule:nonzero;stroke:none" />
    <path
       id="path14-0"
       d="m 102.82,160.17 c 0,1.24 0.92,1.95 2.59,1.95 1.77,0 3.05,-0.6 4.15,-1.81 v -2.06 h -3.83 c -2.41,0 -2.91,1.14 -2.91,1.92 z"
       style="fill:#555555;fill-opacity:1;fill-rule:nonzero;stroke:none" />
    <path
       id="path16-3"
       d="m 85.68,160.17 c 1.81,0 3.05,-1.03 3.97,-1.95 V 153 c -0.92,-0.92 -2.16,-1.95 -3.97,-1.95 -1.42,0 -2.94,1.03 -2.94,2.98 v 3.16 c 0,1.95 1.52,2.98 2.94,2.98 z"
       style="fill:#555555;fill-opacity:1;fill-rule:nonzero;stroke:none" />
    <path
       id="path18-0"
       d="m 69.68,153.68 c 0,-1.6 -1.17,-2.63 -3.3,-2.63 -2.2,0 -3.3,1.06 -3.3,2.63 v 0.92 h 6.6 z"
       style="fill:#555555;fill-opacity:1;fill-rule:nonzero;stroke:none" />
    <path
       id="path20"
       d="M 16.16,177.96 H 238.81 V 130.6 H 16.16 Z m 203.47,-18.68 -5.15,-1.31 c -2.34,-0.6 -4.86,-1.81 -4.86,-5.15 0,-3.65 2.8,-5.96 7.56,-5.96 1.42,0 2.65,0.23 3.72,0.62 2.52,0.93 4.03,2.9 4.13,5.76 h -4.13 -0.48 c -0.11,-1.45 -1.42,-2.2 -3.58,-2.2 -2.02,0 -2.73,0.75 -2.73,1.49 0,0.71 0.57,1.06 1.6,1.31 l 5.2,1.29 0.09,0.02 c 2.45,0.6 4.36,1.95 4.36,5.04 0,2.81 -1.7,4.79 -4.47,5.64 -0.98,0.3 -2.08,0.46 -3.3,0.46 -4.9,0 -8.2,-2.62 -8.34,-6.81 h 4.58 c 0.21,1.67 1.85,2.63 4.33,2.63 1.67,0 2.73,-0.64 2.73,-1.56 -0.02,-0.66 -0.37,-1.06 -1.26,-1.27 z m -24.87,-11.99 h 2.73 v -3.87 h 4.61 v 3.87 h 4.22 v 4.01 h -4.22 v 7.52 c 0,2.41 1.03,3.05 2.7,3.05 h 1.53 v 4.01 h -2.02 c -5.5,0 -6.81,-3.51 -6.81,-7.06 v -7.52 h -2.73 v -4.01 z m -18.85,0 h 2.66 l 1.35,1.84 c 1.17,-1.14 2.91,-2.27 5.5,-2.27 4.01,0 6.46,2.7 6.46,7.2 v 11.82 h -4.61 v -11.53 c 0,-2.27 -1.28,-3.3 -2.87,-3.3 -1.81,0 -3.3,1.31 -3.87,1.95 v 12.88 h -4.61 v -18.59 z m -12.59,3.76 c -2.09,0 -2.98,0.92 -2.98,2.13 h -4.51 c 0,-3.65 2.38,-6.32 7.49,-6.32 5.11,0 7.59,2.66 7.59,6.39 v 12.63 h -2.66 l -1.35,-1.81 c -1.35,1.24 -2.94,2.24 -5.71,2.24 -3.34,0 -6.25,-1.88 -6.25,-5.53 0,-3.83 2.48,-6.03 7.52,-6.03 h 3.83 v -1.17 c 0.01,-1.61 -0.91,-2.53 -2.97,-2.53 z m -19.98,-3.76 H 146 l 1.35,1.84 c 0.89,-1.03 2.38,-2.27 4.83,-2.27 h 0.96 v 4.43 h -0.96 c -1.95,0 -3.19,0.46 -4.22,1.7 v 12.88 h -4.61 v -18.58 z m -24.52,2.16 c 0,-5.64 3.65,-8.94 9.9,-8.94 5.36,0 9.44,2.95 9.44,8.62 h -5.04 c 0,-2.52 -1.92,-4.01 -4.68,-4.01 -3.09,0 -4.58,1.6 -4.58,4.12 v 8.3 c 0,2.7 1.6,4.26 4.51,4.26 1.92,0 3.8,-0.96 4.75,-2.45 v -2.7 h -4.4 v -4.19 h 9.44 v 13.41 h -2.7 l -1.38,-2.06 c -1.53,1.7 -3.69,2.59 -6.17,2.59 -5.71,0 -9.08,-3.34 -9.08,-8.84 v -8.11 z m -12.24,1.6 c -2.09,0 -2.98,0.92 -2.98,2.13 h -4.5 c 0,-3.65 2.38,-6.32 7.49,-6.32 5.11,0 7.59,2.66 7.59,6.39 v 12.63 h -2.66 l -1.35,-1.81 c -1.35,1.24 -2.94,2.24 -5.71,2.24 -3.34,0 -6.25,-1.88 -6.25,-5.53 0,-3.83 2.48,-6.03 7.52,-6.03 h 3.83 v -1.17 c 0,-1.61 -0.92,-2.53 -2.98,-2.53 z m -28.45,2.63 c 0,-4.65 2.98,-6.81 6.6,-6.81 2.7,0 4.26,1.06 5.54,2.27 l 1.35,-1.84 h 2.66 v 17.46 c 0,4.86 -3.26,7.24 -7.95,7.24 -4.72,0 -7.74,-2.27 -7.74,-6.07 v -0.14 h 4.61 v 0.11 c 0,0.82 0.75,1.92 3.09,1.92 2.41,0 3.37,-1.28 3.37,-3.05 v -2.13 c -0.78,0.67 -2.34,1.74 -4.93,1.74 -3.62,0 -6.6,-2.16 -6.6,-6.81 z m -19.66,0.07 c 0,-4.26 3.23,-6.88 8.09,-6.88 4.58,0 7.74,2.45 7.74,6.81 v 4.43 H 63.08 v 1.31 c 0,1.56 1.1,2.7 3.48,2.7 1.77,0 2.77,-0.71 3.09,-1.88 h 4.61 c -0.36,3.8 -3.16,6.07 -7.7,6.07 -4.86,0 -8.09,-2.45 -8.09,-6.81 z M 31.11,141.04 h 2.92 1.94 L 42.5,152 49.03,141.04 h 4.72 v 24.84 h -4.86 v -15.9 l -4.9,8.16 h -3.12 l -4.9,-8.16 v 15.9 H 34 31.11 Z"
       style="fill:#555555;fill-opacity:1;fill-rule:nonzero;stroke:none" />
    <path
       id="path22-2"
       d="m 245.59,122.45 h -12.16 l 0.07,-49.7 c 0.01,-4.25 -2.27,-8.21 -5.95,-10.34 v 0 L 133.63,7.99 C 129.95,5.86 125.38,5.85 121.7,7.97 L 27.61,62.1 c -3.68,2.12 -5.98,6.07 -5.98,10.32 l -0.07,50.03 H 9.41 c -1.4,0 -3.04,1.53 -3.04,2.93 v 57.95 c 0,1.4 1.64,3 3.04,3 h 12.06 l -0.01,5.45 c -0.01,4.25 2.27,8.21 5.95,10.34 l 93.92,54.42 c 1.84,1.07 3.91,1.6 5.98,1.6 2.06,0 4.11,-0.53 5.95,-1.58 l 94.09,-54.13 c 3.68,-2.12 5.98,-6.07 5.98,-10.32 l 0.01,-5.78 h 12.25 c 1.4,0 3.04,-1.6 3.04,-3 v -57.95 c 0,-1.4 -1.64,-2.93 -3.04,-2.93 z m -2.69,5.44 -0.07,52.78 h -16.52 -0.19 l -0.02,11.43 c 0,1.68 -0.91,3.24 -2.36,4.07 l -94.09,54.13 c -1.45,0.84 -3.26,0.83 -4.71,-0.01 L 31.02,195.87 c -1.45,-0.84 -2.35,-2.4 -2.35,-4.08 l 0.02,-11.13 H 28.67 12.16 l -0.07,-52.8 16.68,0.03 0.08,-55.46 c 0,-1.68 0.91,-3.24 2.36,-4.07 L 125.3,14.23 c 0.72,-0.42 1.53,-0.62 2.35,-0.62 0.82,0 1.63,0.21 2.36,0.63 l 93.92,54.42 v 0 c 1.45,0.84 2.35,2.4 2.35,4.08 l -0.08,55.15 16.7,-0.03 z"
       style="fill:#555555;fill-opacity:1;fill-rule:nonzero;stroke:none" />
  </g>
</svg>
