<?xml version="1.0" encoding="UTF-8" standalone="no"?>
<svg
   xmlns:dc="http://purl.org/dc/elements/1.1/"
   xmlns:cc="http://creativecommons.org/ns#"
   xmlns:rdf="http://www.w3.org/1999/02/22-rdf-syntax-ns#"
   xmlns:svg="http://www.w3.org/2000/svg"
   xmlns="http://www.w3.org/2000/svg"
   xmlns:sodipodi="http://sodipodi.sourceforge.net/DTD/sodipodi-0.dtd"
   xmlns:inkscape="http://www.inkscape.org/namespaces/inkscape"
   version="1.1"
   id="Layer_1"
   x="0px"
   y="0px"
   viewBox="0 0 559.15996 124.99999"
   xml:space="preserve"
   sodipodi:docname="fvector_consulting.svg"
   width="559.15997"
   height="125"
   inkscape:version="0.92.3 (2405546, 2018-03-11)"><metadata
   id="metadata47"><rdf:RDF><cc:Work
       rdf:about=""><dc:format>image/svg+xml</dc:format><dc:type
         rdf:resource="http://purl.org/dc/dcmitype/StillImage" /><dc:title></dc:title></cc:Work></rdf:RDF></metadata><defs
   id="defs45" /><sodipodi:namedview
   pagecolor="#ffffff"
   bordercolor="#666666"
   borderopacity="1"
   objecttolerance="10"
   gridtolerance="10"
   guidetolerance="10"
   inkscape:pageopacity="0"
   inkscape:pageshadow="2"
   inkscape:window-width="6400"
   inkscape:window-height="3444"
   id="namedview43"
   showgrid="false"
   fit-margin-top="0"
   fit-margin-left="0"
   fit-margin-right="0"
   fit-margin-bottom="0"
   inkscape:zoom="3.1716166"
   inkscape:cx="374.75802"
   inkscape:cy="43.34601"
   inkscape:window-x="-16"
   inkscape:window-y="-16"
   inkscape:window-maximized="1"
   inkscape:current-layer="Layer_1" />
<style
   type="text/css"
   id="style2">
	.st0{fill:#777777;}
</style>
<g
   id="g40"
   transform="translate(-141.36,-235.14)">
	<polygon
   class="st0"
   points="271.06,280.11 295.35,280.11 298.05,265.68 273.55,265.68 276.07,251.24 305.67,251.24 308.38,236.81 263.32,236.81 249.94,312.54 265.29,312.54 "
   id="polygon4"
   style="fill:#777777" />
	<polygon
   class="st0"
   points="328.11,236.81 312.79,236.81 329.2,312.54 339.62,312.54 382.79,236.81 365.75,236.81 338.47,285 "
   id="polygon6"
   style="fill:#777777" />
	<polygon
   class="st0"
   points="423.19,298.1 393.48,298.1 396.65,280.11 420.93,280.11 423.63,265.68 399.13,265.68 401.65,251.24 431.25,251.24 433.96,236.81 388.9,236.81 375.52,312.54 420.48,312.54 "
   id="polygon8"
   style="fill:#777777" />
	<path
   class="st0"
   d="m 475,235.36 c -21.38,0 -37.7,15.3 -40.6,38.07 -1.51,11.81 1.31,22.46 7.95,30.01 5.98,6.8 14.5,10.54 23.99,10.54 8.38,0 17.36,-2.75 24.02,-7.36 l 1.62,-1.13 2.93,-19.86 -8.92,6.86 c -5.97,4.6 -12.15,6.83 -18.88,6.83 -5.21,0 -9.64,-1.9 -12.8,-5.51 -3.97,-4.52 -5.58,-11.35 -4.56,-19.23 1.9,-14.7 11.74,-24.57 24.47,-24.57 6.68,0 12.32,2.1 16.78,6.23 l 6.26,5.8 2.72,-17.23 -1.88,-1.65 c -5.47,-4.81 -14.33,-7.8 -23.1,-7.8"
   id="path10"
   inkscape:connector-curvature="0"
   style="fill:#777777" />
	<polygon
   class="st0"
   points="505.6,251.24 527.76,251.24 516.99,312.54 532.34,312.54 543.11,251.24 565.46,251.24 567.87,236.81 508.01,236.81 "
   id="polygon12"
   style="fill:#777777" />
	<path
   class="st0"
   d="m 604.25,235.14 c -21.44,0 -38.94,16.4 -41.61,38.99 -1.35,11.4 1.56,21.79 8.19,29.25 6.2,6.97 15.11,10.81 25.08,10.81 21.44,0 38.94,-16.4 41.61,-38.99 1.35,-11.37 -1.57,-21.75 -8.21,-29.23 -6.21,-6.98 -15.11,-10.83 -25.06,-10.83 m -7.67,64.41 c -5.73,0 -10.55,-2.01 -13.92,-5.81 -3.91,-4.4 -5.56,-10.98 -4.65,-18.56 1.65,-14.71 12.41,-25.38 25.57,-25.38 5.76,0 10.57,2 13.94,5.79 3.89,4.38 5.54,10.97 4.64,18.54 -1.76,14.73 -12.52,25.42 -25.58,25.42"
   id="path14"
   inkscape:connector-curvature="0"
   style="fill:#777777" />
	<path
   class="st0"
   d="m 684.22,282.36 c 8.01,-3.38 13.61,-10.66 15.12,-20.07 v -0.01 c 1.16,-7.28 -0.4,-13.88 -4.4,-18.56 -2.69,-3.15 -7.8,-6.92 -16.86,-6.92 h -22.47 l -13.38,75.73 h 15.34 l 5,-27.98 h 5.74 l 14.44,27.98 h 17.15 z m -15.86,-31.12 h 8.83 c 2.78,0 4.78,0.68 5.94,2.02 1.27,1.46 1.75,3.97 1.34,6.8 -1.08,6.67 -4.91,10.05 -11.39,10.05 h -8.02 z"
   id="path16"
   inkscape:connector-curvature="0"
   style="fill:#777777" />
	<path
   class="st0"
   d="m 269.45,336.84 c -1.87,-1.73 -4.5,-3.05 -8.14,-3.05 -5.82,0 -10.92,4.32 -11.88,11.69 -0.96,7.33 3.1,12.24 8.96,12.24 3.64,0 6.51,-1.36 8.87,-3.18 l -0.41,2.78 c -2.37,1.64 -5.64,2.68 -8.78,2.68 -6.92,0 -12.38,-5.64 -11.24,-14.51 1.14,-8.92 7.6,-13.97 14.78,-13.97 3.19,0 6.37,1.09 8.24,2.73 z"
   id="path18"
   inkscape:connector-curvature="0"
   style="fill:#777777" />
	<path
   class="st0"
   d="m 309.14,360.09 c -7.42,0 -12.79,-5.87 -11.78,-14.33 1,-8.46 7.46,-14.33 15.19,-14.33 7.37,0 12.79,5.87 11.78,14.33 -1,8.46 -7.51,14.33 -15.19,14.33 m 3.14,-26.39 c -6.05,0 -11.51,4.78 -12.33,12.06 -0.86,7.23 3.32,12.06 9.46,12.06 6.05,0 11.46,-4.82 12.33,-12.06 0.86,-7.28 -3.32,-12.06 -9.46,-12.06"
   id="path20"
   inkscape:connector-curvature="0"
   style="fill:#777777" />
	<polygon
   class="st0"
   points="359.01,337.34 355.15,359.41 352.64,359.41 357.47,332.11 358.88,332.11 370.57,354.17 374.44,332.11 376.94,332.11 372.12,359.41 370.71,359.41 "
   id="polygon22"
   style="fill:#777777" />
	<path
   class="st0"
   d="m 421.04,335.93 c -1.18,-1.05 -3.19,-2.27 -6.01,-2.27 -3.05,0 -5.55,1.64 -5.96,4.41 -0.36,2.5 0.64,4.5 4.55,5.69 5.6,1.64 7.6,4.69 7.01,8.74 -0.73,5.18 -4.91,7.55 -9.42,7.55 -3.96,0 -6.55,-1.86 -7.83,-3.41 l 0.82,-2.41 c 1.32,1.5 3.41,3.64 7.32,3.64 3.46,0 6.14,-2.05 6.6,-5.32 0.41,-3.05 -0.82,-5.14 -5.78,-6.64 -4.5,-1.32 -6.32,-4.28 -5.78,-7.92 0.55,-3.68 4.19,-6.51 8.83,-6.51 2.64,0 5.32,1.27 6.42,2.41 z"
   id="path24"
   inkscape:connector-curvature="0"
   style="fill:#777777" />
	<path
   class="st0"
   d="m 473.32,346.76 c -1.59,9.19 -5.96,13.38 -12.42,13.38 -6.41,0 -10.55,-4.19 -8.92,-13.38 l 2.59,-14.65 h 2.5 l -2.59,14.7 c -1.32,7.69 1.59,11.05 6.55,11.05 4.68,0 8.46,-3.41 9.78,-11.05 l 2.59,-14.7 h 2.5 z"
   id="path26"
   inkscape:connector-curvature="0"
   style="fill:#777777" />
	<polygon
   class="st0"
   points="507.91,332.11 510.41,332.11 506,357.22 518.14,357.22 517.74,359.41 503.09,359.41 "
   id="polygon28"
   style="fill:#777777" />
	<polygon
   class="st0"
   points="551.46,359.41 548.96,359.41 553.37,334.29 544.27,334.29 544.63,332.11 565.38,332.11 565.02,334.29 555.87,334.29 "
   id="polygon30"
   style="fill:#777777" />
	<polygon
   class="st0"
   points="594.87,332.11 597.37,332.11 592.55,359.41 590.05,359.41 "
   id="polygon32"
   style="fill:#777777" />
	<polygon
   class="st0"
   points="630.91,337.34 627.05,359.41 624.54,359.41 629.37,332.11 630.78,332.11 642.47,354.17 646.34,332.11 648.84,332.11 644.02,359.41 642.61,359.41 "
   id="polygon34"
   style="fill:#777777" />
	<path
   class="st0"
   d="m 700.12,336.84 c -1.91,-1.78 -4.51,-3.09 -8.15,-3.09 -6.14,0 -11.24,4.37 -12.19,11.74 -0.95,7.28 3.09,12.24 9.28,12.24 2.68,0 4.59,-0.59 6.78,-1.77 l 1.27,-7.1 h -5.32 l 0.41,-2.27 h 7.78 l -1.91,10.74 c -1.73,0.77 -4.73,2.73 -9.33,2.73 -7.19,0 -12.69,-5.69 -11.56,-14.56 1.14,-8.92 7.64,-14.01 15.15,-14.01 3.14,0 6.28,1.09 8.19,2.73 z"
   id="path36"
   inkscape:connector-curvature="0"
   style="fill:#777777" />
	<polygon
   class="st0"
   points="141.36,339.16 161.11,312.47 167.13,282.17 178.07,282.17 195.01,266.47 169.92,266.47 172.41,252.5 216.6,252.5 210.67,285.8 198.6,270.9 186.22,282.17 198.06,296.77 170.08,296.75 166.87,312.47 221.7,312.47 235.16,236.81 159.43,236.81 "
   id="polygon38"
   style="fill:#777777" />
</g>
</svg>