<?xml version="1.0" encoding="UTF-8" standalone="no"?>
<svg
   xmlns:dc="http://purl.org/dc/elements/1.1/"
   xmlns:cc="http://creativecommons.org/ns#"
   xmlns:rdf="http://www.w3.org/1999/02/22-rdf-syntax-ns#"
   xmlns:svg="http://www.w3.org/2000/svg"
   xmlns="http://www.w3.org/2000/svg"
   id="svg16"
   xml:space="preserve"
   enable-background="new 0 0 1600 1600"
   viewBox="0 0 1175 607.60437"
   height="607.60437"
   width="1175"
   y="0px"
   x="0px"
   version="1.1"><metadata
   id="metadata22"><rdf:RDF><cc:Work
       rdf:about=""><dc:format>image/svg+xml</dc:format><dc:type
         rdf:resource="http://purl.org/dc/dcmitype/StillImage" /><dc:title></dc:title></cc:Work></rdf:RDF></metadata><defs
   id="defs20" />
<g
   transform="translate(-229,-471.19781)"
   id="Layer_4">
</g>
<g
   transform="translate(-229,-471.19781)"
   id="Layer_1">
	<polygon
   style="fill:#2a8ad3;stroke:#001447;stroke-width:4;stroke-miterlimit:10"
   id="polygon3"
   points="231,1017.064 231,532.936 652,473.5 652,1076.5 "
   stroke-miterlimit="10" />
	<polygon
   style="fill:#2496ed;stroke:#001447;stroke-width:4;stroke-miterlimit:10"
   id="polygon5"
   points="652,473.5 1402,545.936 1402,1004.064 652,1076.5 "
   stroke-miterlimit="10" />
</g>
<g
   transform="translate(-229,-471.19781)"
   id="Layer_3">
</g>
<g
   transform="translate(-229,-471.19781)"
   id="Layer_2">
	<g
   id="g13">
		<g
   id="g11">
			<path
   style="fill:#ffffff;stroke:#001447;stroke-width:5;stroke-miterlimit:10"
   id="path9"
   d="M 980.689,932.496 C 963.34,928.361 950.552,920.674 942.322,909.424 934.694,899 929.959,885.446 928.108,868.801 c -1.852,-16.671 -2.801,-41.596 -2.847,-74.768 l -0.243,-173.917 92.005,6.419 -0.166,185.233 c -0.01,11.039 0.281,21.622 0.887,31.742 0.601,8.034 1.967,13.806 4.099,17.313 2.125,3.504 5.781,5.612 10.967,6.329 4.57,1.033 11.884,1.371 21.942,1.027 l 10.515,-0.359 c 2.437,-0.083 5.18,-0.464 8.231,-1.153 l -0.162,67.207 c -2.134,0.423 -5.179,0.767 -9.13,1.02 l -9.584,0.609 c -31.946,2.037 -56.588,1.051 -73.933,-3.007 z m 112.7,-300.626 92.005,6.434 -0.867,155.301 c -0.152,27.13 -0.881,47.624 -2.173,61.5 -1.299,13.899 -4.711,25.68 -10.244,35.366 -6.151,11.166 -15.476,20.049 -27.98,26.656 -12.507,6.673 -29.71,11.57 -51.622,14.667 z"
   stroke-miterlimit="10" />
		</g>
	</g>
</g>
</svg>