<?xml version="1.0" encoding="UTF-8" standalone="no"?>
<!-- Created with Inkscape (http://www.inkscape.org/) -->

<svg
   xmlns:dc="http://purl.org/dc/elements/1.1/"
   xmlns:cc="http://creativecommons.org/ns#"
   xmlns:rdf="http://www.w3.org/1999/02/22-rdf-syntax-ns#"
   xmlns:svg="http://www.w3.org/2000/svg"
   xmlns="http://www.w3.org/2000/svg"
   xmlns:sodipodi="http://sodipodi.sourceforge.net/DTD/sodipodi-0.dtd"
   xmlns:inkscape="http://www.inkscape.org/namespaces/inkscape"
   width="168.28905mm"
   height="59.156952mm"
   viewBox="0 0 168.28905 59.156952"
   version="1.1"
   id="svg8"
   inkscape:version="0.92.3 (2405546, 2018-03-11)"
   sodipodi:docname="icons_compact.svg">
  <defs
     id="defs2">
    <clipPath
       id="clipPath831"
       clipPathUnits="userSpaceOnUse">
      <path
         inkscape:connector-curvature="0"
         id="path829"
         d="M 67.948,536.089 C 51.238,516.93 54.407,501.11 54.407,501.11 v 0 c 0,0 4.609,10.887 15.703,22.352 v 0 c 5.252,5.429 9.181,7.246 11.862,7.254 v 0 c 2.98,0.009 4.417,-2.221 4.417,-4.208 v 0 -38.893 c 0,-3.838 -2.473,-4.677 -4.752,-4.634 v 0 c -1.946,0.036 -3.747,0.712 -3.747,0.712 v 0 c 11.38,-16.543 38.608,-18.866 38.608,-18.866 v 0 l 11.957,12.772 0.28,-0.241 10.956,-9.336 c 20.024,11.898 29.679,33.959 29.679,33.959 v 0 c -8.935,-9.46 -14.63,-11.665 -18.012,-11.648 v 0 c -2.998,0.016 -4.176,1.778 -4.176,1.778 v 0 c -0.162,0.82 -0.44,12.653 -0.541,24.493 v 0 c -0.101,12.267 -0.012,24.543 0.604,24.579 v 0 c 3.458,6.49 14.489,19.576 14.489,19.576 v 0 c -20.603,-4.06 -31.839,-17.56 -31.839,-17.56 v 0 c -3.314,2.612 -10.083,2.179 -10.083,2.179 v 0 c 3.168,-1.745 6.337,-6.825 6.337,-11.033 v 0 -41.364 c 0,0 -6.913,-6.094 -12.245,-6.094 v 0 c -3.151,0 -5.094,1.726 -6.156,3.135 v 0 c -0.734,0.978 -1.048,1.8 -1.048,1.8 v 0 51.088 c -0.654,-0.473 -1.583,-0.868 -2.538,-0.862 v 0 c -1.132,0.005 -2.305,0.573 -3.1,2.242 v 0 c -0.601,1.258 -0.987,3.14 -0.987,5.877 v 0 c 0,9.432 10.66,15.675 10.66,15.675 v 0 C 97.193,562.212 84.66,555.246 67.948,536.089" />
    </clipPath>
    <clipPath
       id="clipPath841"
       clipPathUnits="userSpaceOnUse">
      <path
         inkscape:connector-curvature="0"
         id="path839"
         d="m 31.751,515.191 c 0,-46.306 37.222,-83.844 83.139,-83.844 v 0 c 45.916,0 83.141,37.538 83.141,83.844 v 0 c 0,46.306 -37.225,83.845 -83.141,83.845 v 0 c -45.917,0 -83.139,-37.539 -83.139,-83.845 m 26.938,-56.68 C 43.677,473.652 35.41,493.782 35.41,515.191 v 0 c 0,21.41 8.267,41.538 23.279,56.677 v 0 c 15.012,15.14 34.971,23.477 56.201,23.477 v 0 c 21.229,0 41.189,-8.337 56.201,-23.477 v 0 c 15.012,-15.139 23.279,-35.267 23.279,-56.677 v 0 c 0,-21.41 -8.267,-41.54 -23.279,-56.68 v 0 C 156.079,443.373 136.119,435.038 114.89,435.038 v 0 c -21.23,0 -41.189,8.335 -56.201,23.473" />
    </clipPath>
    <clipPath
       id="clipPath859"
       clipPathUnits="userSpaceOnUse">
      <path
         inkscape:connector-curvature="0"
         id="path857"
         d="m 107.09,378.422 c -1.097,-0.07 -2.029,-0.207 -2.796,-0.414 v 0 c -0.767,-0.205 -1.39,-0.491 -1.87,-0.858 v 0 c -0.479,-0.369 -0.854,-0.853 -1.121,-1.447 v 0 c -0.268,-0.596 -0.451,-1.322 -0.547,-2.179 v 0 c -0.095,-0.856 -0.144,-1.87 -0.144,-3.04 v 0 -0.476 c 0,-1.165 0.046,-2.168 0.139,-3.018 v 0 c 0.092,-0.848 0.27,-1.57 0.535,-2.167 v 0 c 0.264,-0.597 0.636,-1.081 1.116,-1.452 v 0 c 0.478,-0.371 1.102,-0.662 1.869,-0.871 v 0 c 0.767,-0.209 1.7,-0.352 2.796,-0.425 v 0 c 1.096,-0.073 2.401,-0.11 3.912,-0.11 v 0 h 0.725 c 1.28,0 2.402,0.035 3.364,0.104 v 0 c 0.963,0.069 1.788,0.189 2.48,0.355 v 0 c 0.69,0.166 1.259,0.391 1.708,0.675 v 0 c 0.449,0.282 0.806,0.639 1.07,1.069 v 0 c 0.265,0.429 0.447,0.941 0.552,1.534 v 0 c 0.104,0.591 0.156,1.28 0.156,2.062 v 0 3.626 h -10.815 v -3.148 h 6.246 v -0.453 c 0,-0.288 -0.018,-0.537 -0.055,-0.75 v 0 c -0.039,-0.212 -0.119,-0.4 -0.236,-0.56 v 0 c -0.118,-0.157 -0.288,-0.289 -0.506,-0.395 v 0 c -0.219,-0.104 -0.509,-0.184 -0.874,-0.244 v 0 c -0.364,-0.057 -0.812,-0.1 -1.344,-0.127 v 0 c -0.533,-0.027 -1.167,-0.041 -1.903,-0.041 v 0 h -0.402 c -0.904,0 -1.676,0.015 -2.316,0.047 v 0 c -0.639,0.031 -1.172,0.099 -1.598,0.203 v 0 c -0.425,0.105 -0.762,0.254 -1.011,0.447 v 0 c -0.249,0.195 -0.434,0.455 -0.557,0.784 v 0 c -0.123,0.33 -0.201,0.735 -0.236,1.216 v 0 c -0.035,0.479 -0.052,1.057 -0.052,1.731 v 0 0.291 c 0,0.687 0.017,1.279 0.052,1.771 v 0 c 0.035,0.491 0.113,0.904 0.236,1.237 v 0 c 0.123,0.333 0.308,0.597 0.557,0.791 v 0 c 0.249,0.193 0.586,0.342 1.011,0.447 v 0 c 0.426,0.103 0.959,0.172 1.598,0.203 v 0 c 0.64,0.031 1.412,0.047 2.316,0.047 v 0 h 0.402 c 0.996,0 1.799,-0.031 2.408,-0.094 v 0 c 0.608,-0.062 1.082,-0.168 1.419,-0.319 v 0 c 0.337,-0.151 0.565,-0.353 0.677,-0.605 v 0 c 0.116,-0.252 0.175,-0.563 0.175,-0.935 v 0 -0.198 h 4.622 v 0.627 c 0,0.713 -0.049,1.338 -0.147,1.871 v 0 c -0.1,0.536 -0.278,0.995 -0.535,1.377 v 0 c -0.255,0.385 -0.606,0.7 -1.046,0.948 v 0 c -0.442,0.247 -1.001,0.443 -1.682,0.588 v 0 c -0.679,0.142 -1.49,0.24 -2.433,0.296 v 0 c -0.943,0.053 -2.044,0.081 -3.301,0.081 v 0 h -0.725 v 0.002 c -1.496,0 -2.792,-0.035 -3.889,-0.104" />
    </clipPath>
    <clipPath
       id="clipPath877"
       clipPathUnits="userSpaceOnUse">
      <path
         inkscape:connector-curvature="0"
         id="path875"
         d="m 27.801,416.031 v -0.002 -15.689 c 0,-0.957 -0.034,-1.788 -0.102,-2.49 v 0 c -0.068,-0.702 -0.206,-1.297 -0.416,-1.781 v 0 c -0.21,-0.485 -0.51,-0.88 -0.902,-1.189 v 0 c -0.393,-0.306 -0.912,-0.542 -1.561,-0.706 v 0 c -0.649,-0.164 -1.447,-0.275 -2.393,-0.339 v 0 c -0.946,-0.06 -2.076,-0.091 -3.387,-0.091 v 0 h -0.709 c -1.311,0 -2.441,0.027 -3.387,0.083 v 0 c -0.946,0.053 -1.743,0.166 -2.392,0.337 v 0 c -0.65,0.17 -1.171,0.406 -1.561,0.707 v 0 c -0.393,0.299 -0.694,0.696 -0.903,1.188 v 0 c -0.21,0.492 -0.349,1.086 -0.416,1.782 v 0 c -0.067,0.696 -0.101,1.53 -0.101,2.499 v 0 15.69 H 1.175 v -18.414 c 0,-1.421 0.103,-2.663 0.305,-3.729 v 0 c 0.203,-1.064 0.55,-1.983 1.044,-2.754 v 0 c 0.493,-0.772 1.157,-1.414 1.987,-1.926 v 0 c 0.831,-0.511 1.88,-0.918 3.143,-1.218 v 0 c 1.265,-0.301 2.769,-0.514 4.513,-0.636 v 0 c 1.743,-0.124 3.771,-0.185 6.083,-0.185 v 0 h 0.872 c 2.338,0 4.387,0.061 6.144,0.185 v 0 c 1.757,0.122 3.269,0.335 4.532,0.636 v 0 c 1.264,0.3 2.308,0.707 3.133,1.218 v 0 c 0.824,0.512 1.48,1.154 1.967,1.926 v 0 c 0.485,0.77 0.824,1.694 1.013,2.766 v 0 c 0.19,1.07 0.283,2.312 0.283,3.718 v 0 18.414 z" />
    </clipPath>
    <clipPath
       id="clipPath891"
       clipPathUnits="userSpaceOnUse">
      <path
         inkscape:connector-curvature="0"
         id="path889"
         d="m 85.187,416.031 v -0.002 -28.533 h 8.314 v 7.926 h 8.395 c 1.298,0 2.416,-0.021 3.355,-0.07 v 0 c 0.94,-0.05 1.731,-0.141 2.372,-0.277 v 0 c 0.643,-0.135 1.16,-0.33 1.551,-0.583 v 0 c 0.393,-0.252 0.698,-0.588 0.914,-1.005 v 0 c 0.216,-0.415 0.358,-0.926 0.425,-1.524 v 0 c 0.068,-0.602 0.102,-1.319 0.102,-2.151 v 0 -2.314 h 8.294 v 4.362 c 0,1.257 -0.069,2.287 -0.203,3.095 v 0 c -0.136,0.805 -0.387,1.457 -0.75,1.955 v 0 c -0.366,0.499 -0.869,0.873 -1.511,1.127 v 0 c -0.643,0.252 -1.464,0.461 -2.464,0.625 v 0 0.163 c 0.906,0.205 1.671,0.505 2.292,0.901 v 0 c 0.621,0.395 1.128,0.897 1.521,1.507 v 0 c 0.392,0.607 0.676,1.33 0.851,2.17 v 0 c 0.177,0.84 0.266,1.819 0.266,2.939 v 0 1.003 c 0,1.64 -0.166,3.016 -0.497,4.129 v 0 c -0.332,1.112 -0.931,2.007 -1.795,2.684 v 0 c -0.866,0.676 -2.048,1.155 -3.549,1.442 v 0 c -1.501,0.287 -3.413,0.431 -5.738,0.431 v 0 z m 8.314,-6.31 h 10.463 c 1.433,0 2.579,-0.045 3.437,-0.133 v 0 c 0.858,-0.09 1.514,-0.267 1.967,-0.533 v 0 c 0.452,-0.266 0.747,-0.648 0.882,-1.147 v 0 c 0.135,-0.498 0.203,-1.15 0.203,-1.955 v 0 -0.492 c 0,-0.819 -0.068,-1.479 -0.203,-1.977 v 0 c -0.135,-0.499 -0.426,-0.888 -0.872,-1.167 v 0 c -0.446,-0.28 -1.098,-0.465 -1.957,-0.554 v 0 c -0.859,-0.089 -2.011,-0.134 -3.457,-0.134 v 0 H 93.501 Z" />
    </clipPath>
    <clipPath
       id="clipPath933"
       clipPathUnits="userSpaceOnUse">
      <path
         inkscape:connector-curvature="0"
         id="path931"
         d="M 351.569,363.752 H 620.177 V 589.883 H 351.569 Z" />
    </clipPath>
    <clipPath
       id="clipPath945"
       clipPathUnits="userSpaceOnUse">
      <path
         inkscape:connector-curvature="0"
         id="path943"
         d="m 416.747,468.389 c 11.351,-9.464 31.574,-27.324 64.911,-17.125 v 0 c -6.088,1.652 -20.449,7.188 -30.084,22.982 v 0 c -15.132,-5.249 -31.421,-6.008 -34.827,-5.857" />
    </clipPath>
    <clipPath
       id="clipPath955"
       clipPathUnits="userSpaceOnUse">
      <path
         inkscape:connector-curvature="0"
         id="path953"
         d="M 351.569,363.752 H 620.177 V 589.883 H 351.569 Z" />
    </clipPath>
    <clipPath
       id="clipPath975"
       clipPathUnits="userSpaceOnUse">
      <path
         inkscape:connector-curvature="0"
         id="path973"
         d="M 400.056,534.458 H 594.947 V 449.171 H 400.056 Z" />
    </clipPath>
    <clipPath
       id="clipPath979"
       clipPathUnits="userSpaceOnUse">
      <path
         inkscape:connector-curvature="0"
         id="path977"
         d="M 400.056,534.458 H 594.948 V 449.171 H 400.056 Z" />
    </clipPath>
  </defs>
  <sodipodi:namedview
     id="base"
     pagecolor="#ffffff"
     bordercolor="#666666"
     borderopacity="1.0"
     inkscape:pageopacity="0.0"
     inkscape:pageshadow="2"
     inkscape:zoom="1.4"
     inkscape:cx="327.60226"
     inkscape:cy="214.24222"
     inkscape:document-units="mm"
     inkscape:current-layer="layer1"
     showgrid="false"
     fit-margin-top="0"
     fit-margin-left="0"
     fit-margin-right="0"
     fit-margin-bottom="0"
     inkscape:window-width="2560"
     inkscape:window-height="1377"
     inkscape:window-x="-8"
     inkscape:window-y="-8"
     inkscape:window-maximized="1" />
  <metadata
     id="metadata5">
    <rdf:RDF>
      <cc:Work
         rdf:about="">
        <dc:format>image/svg+xml</dc:format>
        <dc:type
           rdf:resource="http://purl.org/dc/dcmitype/StillImage" />
        <dc:title></dc:title>
      </cc:Work>
    </rdf:RDF>
  </metadata>
  <g
     inkscape:label="Layer 1"
     inkscape:groupmode="layer"
     id="layer1"
     transform="translate(-8.3569349,-48.444451)">
    <g
       id="g1304">
      <g
         transform="translate(-3.3944542e-7,0.58108541)"
         id="g1233">
        <g
           id="g825"
           transform="matrix(0.35277777,0,0,-0.35277777,-2.8441117,259.18995)">
          <g
             id="g827"
             clip-path="url(#clipPath831)">
            <path
               d="M 52.991,567.018 H 170.546 V 463.652 H 52.991 Z"
               style="fill:#2f2f2d;fill-opacity:1;fill-rule:nonzero;stroke:none"
               id="path833"
               inkscape:connector-curvature="0" />
          </g>
        </g>
        <g
           id="g835"
           transform="matrix(0.35277777,0,0,-0.35277777,-2.8441117,259.18995)">
          <g
             id="g837"
             clip-path="url(#clipPath841)">
            <path
               d="M 30.575,600.211 H 199.206 V 430.169 H 30.575 Z"
               style="fill:#2f2f2d;fill-opacity:1;fill-rule:nonzero;stroke:none"
               id="path843"
               inkscape:connector-curvature="0" />
          </g>
        </g>
      </g>
      <g
         transform="translate(-31.183043,0.94494047)"
         id="g1225">
        <path
           d="m 152.09165,69.804732 h 7.19667 v 6.542616 h -7.19667 z"
           style="fill:#099cec;fill-opacity:1;fill-rule:nonzero;stroke:none;stroke-width:0.35277778"
           id="path909"
           inkscape:connector-curvature="0" />
        <path
           d="m 143.58618,69.804732 h 7.19667 v 6.542616 h -7.19667 z"
           style="fill:#099cec;fill-opacity:1;fill-rule:nonzero;stroke:none;stroke-width:0.35277778"
           id="path911"
           inkscape:connector-curvature="0" />
        <path
           d="m 160.59712,69.804732 h 7.19632 v 6.542616 h -7.19632 z"
           style="fill:#099cec;fill-opacity:1;fill-rule:nonzero;stroke:none;stroke-width:0.35277778"
           id="path913"
           inkscape:connector-curvature="0" />
        <path
           d="m 169.1026,69.804732 h 7.19631 v 6.542616 h -7.19631 z"
           style="fill:#099cec;fill-opacity:1;fill-rule:nonzero;stroke:none;stroke-width:0.35277778"
           id="path915"
           inkscape:connector-curvature="0" />
        <path
           d="m 177.60771,69.804732 h 7.19702 v 6.542616 h -7.19702 z"
           style="fill:#099cec;fill-opacity:1;fill-rule:nonzero;stroke:none;stroke-width:0.35277778"
           id="path917"
           inkscape:connector-curvature="0" />
        <path
           d="m 152.09165,61.953663 h 7.19667 v 6.542616 h -7.19667 z"
           style="fill:#099cec;fill-opacity:1;fill-rule:nonzero;stroke:none;stroke-width:0.35277778"
           id="path919"
           inkscape:connector-curvature="0" />
        <path
           d="m 160.59712,61.953663 h 7.19632 v 6.542616 h -7.19632 z"
           style="fill:#099cec;fill-opacity:1;fill-rule:nonzero;stroke:none;stroke-width:0.35277778"
           id="path921"
           inkscape:connector-curvature="0" />
        <path
           d="m 169.1026,61.953663 h 7.19631 v 6.542616 h -7.19631 z"
           style="fill:#099cec;fill-opacity:1;fill-rule:nonzero;stroke:none;stroke-width:0.35277778"
           id="path923"
           inkscape:connector-curvature="0" />
        <path
           d="m 169.1026,54.102593 h 7.19631 v 6.542617 h -7.19631 z"
           style="fill:#099cec;fill-opacity:1;fill-rule:nonzero;stroke:none;stroke-width:0.35277778"
           id="path925"
           inkscape:connector-curvature="0" />
        <g
           id="g927"
           transform="matrix(0.35277777,0,0,-0.35277777,-2.8441117,259.18995)">
          <g
             id="g929"
             clip-path="url(#clipPath933)">
            <g
               id="g935"
               transform="translate(592.6797,531.1138)">
              <path
                 d="m 0,0 c -4.188,2.819 -15.187,4.021 -23.187,1.868 -0.43,7.967 -4.538,14.681 -12.054,20.536 l -2.782,1.868 -1.855,-2.8 c -3.644,-5.532 -5.18,-12.903 -4.637,-19.604 0.431,-4.128 1.866,-8.77 4.637,-12.137 -2.123,-1.649 -8.724,-4.837 -17.618,-4.667 h -132.603 c -2.357,-14.003 1.681,-67.213 63.056,-67.213 45.565,0 83.006,20.491 100.148,63.479 5.639,-0.092 20.533,-1.011 27.819,13.069 0.178,0.237 1.854,3.734 1.854,3.734 z"
                 style="fill:#099cec;fill-opacity:1;fill-rule:nonzero;stroke:none"
                 id="path937"
                 inkscape:connector-curvature="0" />
            </g>
          </g>
        </g>
        <g
           id="g939"
           transform="matrix(0.35277777,0,0,-0.35277777,-2.8441117,259.18995)">
          <g
             id="g941"
             clip-path="url(#clipPath945)">
            <path
               d="m 407.475,483.518 h 83.456 V 438.94 h -83.456 z"
               style="fill:#ffffff;fill-opacity:1;fill-rule:nonzero;stroke:none"
               id="path947"
               inkscape:connector-curvature="0" />
          </g>
        </g>
        <g
           id="g957"
           transform="matrix(0.35277777,0,0,-0.35277777,155.86489,90.734085)">
          <path
             d="m 0,0 c -7.279,-4.153 -15.718,-6.488 -24.667,-6.488 -4.534,0 -8.926,0.604 -13.106,1.733 l 2.647,-4.448 c 3.384,-0.669 6.879,-1.02 10.459,-1.02 9.645,0 18.64,2.521 26.475,6.956 C 1.16,-2.193 0.556,-1.12 0,0"
             style="fill:#066da5;fill-opacity:1;fill-rule:nonzero;stroke:none"
             id="path959"
             inkscape:connector-curvature="0" />
        </g>
        <g
           id="g961"
           transform="matrix(0.35277777,0,0,-0.35277777,160.84375,89.879692)">
          <path
             d="m 0,0 c 3.56,0 6.446,2.906 6.446,6.491 0,3.585 -2.886,6.491 -6.446,6.491 -3.562,0 -6.448,-2.906 -6.448,-6.491 C -6.448,2.905 -3.562,0 0,0"
             style="fill:#ffffff;fill-opacity:1;fill-rule:nonzero;stroke:none"
             id="path963"
             inkscape:connector-curvature="0" />
        </g>
        <g
           id="g965"
           transform="matrix(0.35277777,0,0,-0.35277777,161.18584,86.94638)">
          <path
             d="m 0,0 c 0,0.594 0.294,1.101 0.725,1.442 -0.505,0.263 -1.07,0.424 -1.677,0.424 -2.034,0 -3.686,-1.66 -3.686,-3.708 0,-2.049 1.652,-3.711 3.686,-3.711 2.034,0 3.685,1.662 3.685,3.711 0,0.072 -0.017,0.141 -0.022,0.212 C 2.45,-1.769 2.169,-1.868 1.854,-1.868 0.83,-1.869 0,-1.032 0,0"
             style="fill:#4d5c64;fill-opacity:1;fill-rule:nonzero;stroke:none"
             id="path967"
             inkscape:connector-curvature="0" />
        </g>
        <g
           id="g969"
           transform="matrix(0.35277777,0,0,-0.35277777,-2.8441117,259.18995)">
          <g
             id="g971" />
          <g
             id="g991">
            <g
               clip-path="url(#clipPath975)"
               id="g989"
               style="opacity:0.05000311">
              <g
                 id="g987">
                <g
                   clip-path="url(#clipPath979)"
                   id="g985">
                  <g
                     transform="translate(592.1465,531.4438)"
                     id="g983">
                    <path
                       d="m 0,0 c -4.174,2.8 -15.584,4.112 -23.206,1.896 l -1.702,-2.399 c -24.853,-51.437 -55.952,-73.182 -98.447,-74.149 -46.34,0.128 -57.936,24.561 -61.201,57.878 h -7.419 c -0.955,-14.003 2.62,-65.499 64.472,-65.499 45.621,0 83.177,20.443 100.519,63.387 5.655,-0.094 21.42,-0.094 28.375,14.003 l 1.41,2.985 z"
                       style="fill:#000000;fill-opacity:1;fill-rule:nonzero;stroke:none"
                       id="path981"
                       inkscape:connector-curvature="0" />
                  </g>
                </g>
              </g>
            </g>
          </g>
        </g>
        <path
           d="m 144.89463,71.113537 h 0.65441 v 3.925359 h -0.65441 z"
           style="fill:#066da5;fill-opacity:1;fill-rule:nonzero;stroke:none;stroke-width:0.35277778"
           id="path993"
           inkscape:connector-curvature="0" />
        <path
           d="m 146.85784,71.113537 h 0.65405 v 3.925359 h -0.65405 z"
           style="fill:#066da5;fill-opacity:1;fill-rule:nonzero;stroke:none;stroke-width:0.35277778"
           id="path995"
           inkscape:connector-curvature="0" />
        <path
           d="m 148.8207,71.113537 h 0.65405 v 3.925359 h -0.65405 z"
           style="fill:#066da5;fill-opacity:1;fill-rule:nonzero;stroke:none;stroke-width:0.35277778"
           id="path997"
           inkscape:connector-curvature="0" />
        <path
           d="m 153.4001,71.113537 h 0.65405 v 3.925359 h -0.65405 z"
           style="fill:#066da5;fill-opacity:1;fill-rule:nonzero;stroke:none;stroke-width:0.35277778"
           id="path999"
           inkscape:connector-curvature="0" />
        <path
           d="m 155.36296,71.113537 h 0.6544 v 3.925359 h -0.6544 z"
           style="fill:#066da5;fill-opacity:1;fill-rule:nonzero;stroke:none;stroke-width:0.35277778"
           id="path1001"
           inkscape:connector-curvature="0" />
        <path
           d="m 157.32582,71.113537 h 0.65405 v 3.925359 h -0.65405 z"
           style="fill:#066da5;fill-opacity:1;fill-rule:nonzero;stroke:none;stroke-width:0.35277778"
           id="path1003"
           inkscape:connector-curvature="0" />
        <path
           d="m 161.90558,71.113537 h 0.65405 v 3.925359 h -0.65405 z"
           style="fill:#066da5;fill-opacity:1;fill-rule:nonzero;stroke:none;stroke-width:0.35277778"
           id="path1005"
           inkscape:connector-curvature="0" />
        <path
           d="m 163.86808,71.113537 h 0.65405 v 3.925359 h -0.65405 z"
           style="fill:#066da5;fill-opacity:1;fill-rule:nonzero;stroke:none;stroke-width:0.35277778"
           id="path1007"
           inkscape:connector-curvature="0" />
        <path
           d="m 165.83093,71.113537 h 0.65441 v 3.925359 h -0.65441 z"
           style="fill:#066da5;fill-opacity:1;fill-rule:nonzero;stroke:none;stroke-width:0.35277778"
           id="path1009"
           inkscape:connector-curvature="0" />
        <path
           d="m 170.4107,71.113537 h 0.65475 v 3.925359 h -0.65475 z"
           style="fill:#066da5;fill-opacity:1;fill-rule:nonzero;stroke:none;stroke-width:0.35277778"
           id="path1011"
           inkscape:connector-curvature="0" />
        <path
           d="m 172.37355,71.113537 h 0.6544 v 3.925359 h -0.6544 z"
           style="fill:#066da5;fill-opacity:1;fill-rule:nonzero;stroke:none;stroke-width:0.35277778"
           id="path1013"
           inkscape:connector-curvature="0" />
        <path
           d="m 174.33641,71.113537 h 0.65405 v 3.925359 h -0.65405 z"
           style="fill:#066da5;fill-opacity:1;fill-rule:nonzero;stroke:none;stroke-width:0.35277778"
           id="path1015"
           inkscape:connector-curvature="0" />
        <path
           d="m 178.91652,71.113537 h 0.6544 v 3.925359 h -0.6544 z"
           style="fill:#066da5;fill-opacity:1;fill-rule:nonzero;stroke:none;stroke-width:0.35277778"
           id="path1017"
           inkscape:connector-curvature="0" />
        <path
           d="m 180.87902,71.113537 h 0.65441 v 3.925359 h -0.65441 z"
           style="fill:#066da5;fill-opacity:1;fill-rule:nonzero;stroke:none;stroke-width:0.35277778"
           id="path1019"
           inkscape:connector-curvature="0" />
        <path
           d="m 182.84188,71.113537 h 0.6544 v 3.925359 h -0.6544 z"
           style="fill:#066da5;fill-opacity:1;fill-rule:nonzero;stroke:none;stroke-width:0.35277778"
           id="path1021"
           inkscape:connector-curvature="0" />
        <path
           d="m 155.36296,63.261763 h 0.6544 v 3.925358 h -0.6544 z"
           style="fill:#066da5;fill-opacity:1;fill-rule:nonzero;stroke:none;stroke-width:0.35277778"
           id="path1023"
           inkscape:connector-curvature="0" />
        <path
           d="m 157.32582,63.261763 h 0.65405 v 3.925358 h -0.65405 z"
           style="fill:#066da5;fill-opacity:1;fill-rule:nonzero;stroke:none;stroke-width:0.35277778"
           id="path1025"
           inkscape:connector-curvature="0" />
        <path
           d="m 161.90558,63.261763 h 0.65405 v 3.925358 h -0.65405 z"
           style="fill:#066da5;fill-opacity:1;fill-rule:nonzero;stroke:none;stroke-width:0.35277778"
           id="path1027"
           inkscape:connector-curvature="0" />
        <path
           d="m 163.86808,63.261763 h 0.65405 v 3.925358 h -0.65405 z"
           style="fill:#066da5;fill-opacity:1;fill-rule:nonzero;stroke:none;stroke-width:0.35277778"
           id="path1029"
           inkscape:connector-curvature="0" />
        <path
           d="m 165.83093,63.261763 h 0.65441 v 3.925358 h -0.65441 z"
           style="fill:#066da5;fill-opacity:1;fill-rule:nonzero;stroke:none;stroke-width:0.35277778"
           id="path1031"
           inkscape:connector-curvature="0" />
        <path
           d="m 170.4107,63.261763 h 0.65475 v 3.925358 h -0.65475 z"
           style="fill:#066da5;fill-opacity:1;fill-rule:nonzero;stroke:none;stroke-width:0.35277778"
           id="path1033"
           inkscape:connector-curvature="0" />
        <path
           d="m 172.37355,63.261763 h 0.6544 v 3.925358 h -0.6544 z"
           style="fill:#066da5;fill-opacity:1;fill-rule:nonzero;stroke:none;stroke-width:0.35277778"
           id="path1035"
           inkscape:connector-curvature="0" />
        <path
           d="m 174.33641,63.261763 h 0.65405 v 3.925358 h -0.65405 z"
           style="fill:#066da5;fill-opacity:1;fill-rule:nonzero;stroke:none;stroke-width:0.35277778"
           id="path1037"
           inkscape:connector-curvature="0" />
        <path
           d="m 172.37355,55.411046 h 0.6544 v 3.925711 h -0.6544 z"
           style="fill:#066da5;fill-opacity:1;fill-rule:nonzero;stroke:none;stroke-width:0.35277778"
           id="path1039"
           inkscape:connector-curvature="0" />
        <path
           d="m 170.4107,55.411046 h 0.65475 v 3.925711 h -0.65475 z"
           style="fill:#066da5;fill-opacity:1;fill-rule:nonzero;stroke:none;stroke-width:0.35277778"
           id="path1041"
           inkscape:connector-curvature="0" />
        <path
           d="m 174.33641,55.411046 h 0.65405 v 3.925711 h -0.65405 z"
           style="fill:#066da5;fill-opacity:1;fill-rule:nonzero;stroke:none;stroke-width:0.35277778"
           id="path1043"
           inkscape:connector-curvature="0" />
        <path
           d="m 153.4001,63.261763 h 0.65405 v 3.925358 h -0.65405 z"
           style="fill:#066da5;fill-opacity:1;fill-rule:nonzero;stroke:none;stroke-width:0.35277778"
           id="path1045"
           inkscape:connector-curvature="0" />
        <g
           id="g1071"
           transform="matrix(0.35277777,0,0,-0.35277777,201.55064,77.081867)">
          <path
             d="m 0,0 c -4.06,-1.427 -7.738,-1.747 -13.254,-1.632 -0.055,10e-4 -0.4,0.008 -0.964,0.018 l -1.276,0.022 -0.475,-1.193 c -16.224,-40.686 -51.655,-62.309 -98.427,-62.309 -26.738,0 -44.185,10.127 -53.811,27.403 -3.714,6.666 -6.075,14.147 -7.184,21.804 -0.766,5.311 -0.871,10.464 -0.447,14.273 h 7.82 v -0.013 h 24.11 3.71 20.4 3.71 20.4 3.709 20.4 3.708 24.111 v 0.036 c 7.346,0.082 14.214,2.355 17.662,5.034 l 1.52,1.181 -1.225,1.488 c -2.299,2.79 -3.776,6.879 -4.22,11.139 -0.527,6.5 1.048,13.385 4.337,18.377 l 0.823,1.244 1.185,-0.795 c 7.199,-5.624 10.895,-11.872 11.286,-19.123 l 0.123,-2.296 2.208,0.595 c 7.222,1.945 17.795,0.995 21.675,-1.616 l 1.435,-0.963 C 12.982,12.539 12.916,12.405 12.824,12.218 12.597,11.75 12.4,11.356 12.251,11.06 12.17,10.899 12.104,10.771 11.924,10.452 9.172,5.132 5.129,1.803 0,0 m -164.309,20.628 h 20.399 V 2.12 h -20.399 z m 24.11,0 h 20.4 V 2.12 h -20.4 z m 0,22.255 h 20.4 V 24.337 h -20.4 z m 24.11,-22.255 H -95.69 V 2.12 h -20.399 z m 0,22.255 H -95.69 V 24.337 h -20.399 z m 24.11,-22.255 h 20.398 V 2.12 h -20.398 z m 0,22.255 h 20.398 V 24.337 h -20.398 z m 0,22.255 h 20.398 V 46.592 h -20.398 z m 24.108,-44.51 H -47.47 V 2.12 H -67.871 Z M 15.181,8.661 c 0.179,0.297 0.441,0.824 1,1.964 0.202,0.413 0.417,0.854 0.631,1.296 0.074,0.155 0.143,0.299 0.283,0.59 l 0.702,1.463 -4.121,2.769 c -4.454,2.998 -14.613,4.129 -22.572,2.604 -1.025,7.501 -5.232,14.013 -12.615,19.764 l -4.379,2.94 -2.883,-4.354 c -3.771,-5.725 -5.538,-13.445 -4.943,-20.791 0.438,-4.214 1.741,-8.279 3.83,-11.497 -3.154,-1.76 -8.335,-3.2 -13.874,-3.273 v 22.201 h -24.11 v 18.546 3.709 22.256 H -95.688 V 46.592 h -20.4 -3.71 -24.11 V 24.337 h -24.111 V 2.121 h -9.434 -1.567 l -0.261,-1.555 c -0.723,-4.289 -0.713,-10.546 0.219,-16.991 1.169,-8.087 3.669,-16.002 7.621,-23.092 10.285,-18.463 28.974,-29.309 57.045,-29.309 47.762,0 84.35,22.051 101.383,63.454 5.755,-0.103 9.734,0.264 14.237,1.847 5.965,2.097 10.75,6.026 13.957,12.186"
             style="fill:#066da5;fill-opacity:1;fill-rule:nonzero;stroke:none"
             id="path1073"
             inkscape:connector-curvature="0" />
        </g>
      </g>
      <g
         transform="matrix(0.35277777,0,0,-0.35277777,85.962354,69.577956)"
         id="g1079">
        <path
           inkscape:connector-curvature="0"
           id="path1081"
           style="fill:#000000;fill-opacity:1;fill-rule:nonzero;stroke:none"
           d="m 0,0 v -21.148 h -20.339 v -5.401 H 0 v -21.328 h 5.76 v 21.328 h 20.339 v 5.401 H 5.76 V 0 Z" />
      </g>
    </g>
  </g>
</svg>
